<svg width="238" height="23" viewBox="0 0 238 23" fill="none" xmlns="http://www.w3.org/2000/svg">
<g opacity="0.5">
<path d="M115.053 0.0475179C117.274 0.12505 119.496 0.667777 121.48 1.59817C121.876 1.792 122.273 1.9083 122.67 1.98583C122.829 1.98583 122.987 1.94706 123.067 1.83076L123.265 1.6757C123.384 1.5594 123.503 1.52063 123.662 1.52063C123.979 1.52063 124.138 1.71447 124.138 2.10213V3.22635L124.059 5.43602L124.098 6.59901C124.138 6.87037 124.138 7.1805 124.178 7.5294V7.80076C124.178 8.14966 124.019 8.30472 123.662 8.30472C123.424 8.30472 123.265 8.07213 123.186 7.6457C122.908 6.21135 122.154 4.8933 121.083 3.88537C119.575 2.21843 117.354 1.24927 115.092 1.28804C112.99 1.24927 110.966 2.17966 109.736 3.88537C108.308 5.90122 107.594 8.30472 107.713 10.747C107.634 13.4606 108.348 16.1743 109.776 18.5002C111.165 20.5936 112.871 21.6403 114.894 21.6403C115.687 21.6015 116.441 21.4852 117.195 21.2526C117.949 21.0588 118.663 20.7874 119.337 20.3998C119.774 20.1284 120.091 19.6632 120.25 19.198C120.448 18.3839 120.528 17.5311 120.488 16.717C120.607 15.7866 120.329 14.8174 119.774 14.0421C119.02 13.4606 118.068 13.1505 117.116 13.1893C116.759 13.1505 116.6 12.9954 116.6 12.7241C116.6 12.4139 116.798 12.2589 117.195 12.2589C117.314 12.2589 117.512 12.2589 117.79 12.2976C118.861 12.3752 120.091 12.4527 121.44 12.4527C122.472 12.4527 123.503 12.4139 124.535 12.3364C124.931 12.2589 125.368 12.2589 125.764 12.2201C126.161 12.2201 126.36 12.3752 126.36 12.6465C126.36 12.9179 126.161 13.073 125.764 13.1505C125.169 13.228 124.693 13.6157 124.455 14.1584C124.178 15.05 124.019 15.9417 124.098 16.8721C124.098 17.221 124.098 17.5698 124.138 17.9187C124.178 18.4615 124.217 18.8104 124.217 19.043C124.257 19.3143 124.178 19.5469 124.019 19.7795C123.781 20.0121 123.503 20.1672 123.186 20.2447C122.948 20.3223 122.075 20.7099 120.567 21.3302C118.425 22.3381 116.084 22.8808 113.704 22.9971C110.966 23.0747 108.308 22.028 106.444 20.0509C104.5 17.9575 103.508 15.2439 103.627 12.4527C103.547 9.23511 104.698 6.09505 106.88 3.69154C108.943 1.28804 111.918 -0.0300145 115.053 0.0475179ZM135.127 17.4148C135.127 19.4306 135.365 20.5548 135.881 20.7874C136.397 20.9813 136.952 21.02 137.508 20.9813C141.237 20.9813 143.855 19.8958 145.403 17.7637C145.879 17.1047 146.196 16.7945 146.315 16.7945C146.514 16.7945 146.633 17.0271 146.633 17.4536C146.633 18.8104 146.157 20.0897 145.284 21.0976C144.49 22.028 143.26 22.5707 141.991 22.5319C141.713 22.5319 141.197 22.4932 140.444 22.4544L138.46 22.3381L136.675 22.2606C136.08 22.2218 135.365 22.2218 134.612 22.2218C133.223 22.2218 131.874 22.2993 130.486 22.4544C130.049 22.4932 129.732 22.5319 129.573 22.5319C129.256 22.5319 129.097 22.3769 129.097 22.1055C129.097 21.9117 129.256 21.7566 129.533 21.6791C130.168 21.524 130.684 21.1363 131.001 20.5548C131.319 19.702 131.477 18.7716 131.398 17.8412V4.4281C131.398 2.72239 130.684 1.75323 129.216 1.52063L128.224 1.36557C127.827 1.28804 127.589 1.13297 127.589 0.861609C127.55 0.629011 127.708 0.396414 127.946 0.357648H128.066C128.224 0.357648 128.383 0.396414 128.542 0.396414C128.7 0.396414 128.899 0.43518 129.176 0.473946L129.89 0.512713C130.565 0.590245 131.081 0.629011 131.398 0.629011C132.231 0.590245 133.064 0.551479 133.937 0.43518C134.81 0.357648 135.683 0.318881 136.556 0.318881C137.23 0.318881 137.547 0.473946 137.547 0.784076C137.547 1.05544 137.309 1.2105 136.833 1.2105C135.722 1.28804 135.167 2.0246 135.167 3.45895L135.127 17.4148ZM160.082 0.00875169C163.137 -0.107547 166.112 0.939141 168.374 2.91622C170.516 4.93206 171.666 7.72323 171.547 10.5919C171.627 13.8095 170.476 16.9496 168.294 19.3531C166.192 21.6791 163.256 22.8808 159.526 22.8808C156.392 23.0359 153.298 21.9117 150.997 19.8183C148.815 17.6474 147.664 14.7011 147.783 11.6774C147.783 10.2043 148.061 8.73115 148.577 7.33557C149.608 4.4281 151.869 2.10213 154.845 1.01667C156.511 0.318881 158.297 0.00875169 160.082 0.00875169ZM158.892 1.2105C156.868 1.13297 154.924 2.0246 153.734 3.61401C152.504 5.20342 151.869 7.45187 151.869 10.2818C151.75 13.1893 152.544 16.058 154.21 18.5002C155.559 20.4773 157.86 21.6791 160.28 21.6791C162.423 21.7178 164.446 20.7487 165.676 19.0817C167.104 17.0271 167.818 14.5849 167.699 12.1038C167.699 10.3981 167.382 8.73115 166.747 7.1805C166.231 5.74615 165.358 4.4281 164.248 3.34265C162.819 1.94706 160.875 1.17174 158.892 1.2105ZM176.784 5.08713C176.784 2.91622 175.872 1.75323 174.087 1.52063L173.333 1.4431C173.095 1.40434 172.976 1.24927 172.976 0.977907C172.976 0.667777 173.134 0.512713 173.452 0.512713H173.848L175.078 0.590245C176.11 0.629011 176.745 0.667777 177.022 0.667777C177.816 0.667777 179.244 0.590245 181.347 0.396414C182.656 0.280115 183.727 0.202583 184.64 0.202583C186.623 0.12505 188.607 0.629011 190.273 1.6757C191.622 2.52856 192.416 4.04044 192.376 5.59109C192.495 7.33557 191.424 8.92498 189.757 9.54524C189.361 9.70031 189.162 9.85537 189.123 9.97167C189.123 10.1655 189.321 10.2818 189.757 10.3593C191.027 10.5532 192.178 11.1734 193.011 12.1038C193.804 13.073 194.241 14.3135 194.201 15.5928C194.28 17.4923 193.487 19.3531 192.019 20.6324C190.353 21.9504 188.25 22.6095 186.108 22.4932L182.775 22.4156L180.196 22.3769C178.768 22.3769 177.34 22.4156 175.911 22.5707C175.554 22.6095 175.197 22.6482 174.88 22.6482C174.563 22.6482 174.364 22.4932 174.364 22.2218C174.364 21.9892 174.523 21.8341 174.801 21.7566C176.11 21.524 176.784 20.4385 176.784 18.4227V5.08713ZM180.553 3.69154V8.30472C180.514 8.80868 180.672 9.27388 181.029 9.62277C181.505 9.9329 182.061 10.0492 182.656 10.0104L184.917 10.0492L185.949 10.0104C187.813 9.77784 188.766 8.69238 188.766 6.71531C188.845 5.28096 188.25 3.84661 187.218 2.83869C186.108 1.83076 184.6 1.28804 183.092 1.36557C182.378 1.28804 181.664 1.4431 181.109 1.83076C180.672 2.37349 180.474 3.03252 180.553 3.69154ZM180.553 14.391V17.0659L180.593 17.6861L180.712 19.043C180.831 20.5936 182.101 21.3689 184.481 21.3689C186.861 21.3689 188.409 20.8262 189.281 19.702C189.996 18.7328 190.353 17.5698 190.353 16.4069C190.353 13.8871 189.202 12.3364 186.901 11.7549C185.433 11.406 183.886 11.251 182.378 11.251C181.585 11.251 181.069 11.4448 180.871 11.7937C180.593 12.6465 180.514 13.5382 180.553 14.391ZM208.087 2.25719L215.585 19.0817C215.862 19.8183 216.339 20.4385 216.894 20.9813C217.449 21.4077 218.124 21.7178 218.838 21.8341C219.036 21.8729 219.116 22.028 219.116 22.2993C219.116 22.6095 218.997 22.7258 218.719 22.7258C218.521 22.7258 218.283 22.687 218.084 22.6482C216.735 22.4156 215.347 22.3381 213.998 22.3769C212.689 22.3381 211.419 22.4156 210.15 22.6482C210.031 22.687 209.872 22.7258 209.713 22.7258C209.475 22.7645 209.277 22.6095 209.237 22.3769V22.2606C209.237 22.1055 209.356 21.9892 209.594 21.9117C210.11 21.7566 210.546 21.4852 210.903 21.0976C211.221 20.7487 211.419 20.3223 211.419 19.8571C211.141 18.4615 210.665 17.1434 209.991 15.9029C209.673 15.2826 209.356 14.9337 208.999 14.8174C207.729 14.6624 206.46 14.6236 205.23 14.6624H203.088L201.62 14.9337C201.223 15.1276 200.747 15.8254 200.231 17.0659L199.715 18.3064C199.557 18.6553 199.477 19.0042 199.477 19.3919C199.477 20.7487 200.43 21.524 202.374 21.7566C202.77 21.7954 203.008 21.9504 202.969 22.2218C202.929 22.4932 202.731 22.6482 202.374 22.6482C202.096 22.6482 201.818 22.6095 201.54 22.5707C200.906 22.4544 200.231 22.3769 199.596 22.3381C199.081 22.3381 198.248 22.3769 197.097 22.4932C196.224 22.5707 195.708 22.6095 195.51 22.6095C195.193 22.6095 195.034 22.4932 195.034 22.2218C195.034 21.9892 195.193 21.8341 195.51 21.7178C196.066 21.5628 196.581 21.1751 196.938 20.7099C197.573 19.7408 198.089 18.6941 198.525 17.6474L203.008 7.5294C203.365 6.71531 203.603 6.17258 203.762 5.86245L205.309 2.79992L206.103 1.28804V1.3268C206.46 0.512713 206.698 0.0862841 206.817 0.0862841C206.976 0.0862841 207.293 0.551479 207.729 1.4431L208.087 2.25719ZM208.721 12.2976L206.579 7.37433C206.063 6.21135 205.706 5.62985 205.468 5.62985C205.349 5.62985 205.111 6.01752 204.754 6.75407L204.437 7.4131L202.532 11.7161L202.334 12.1038C202.255 12.2201 202.215 12.3752 202.215 12.5302C202.215 12.8791 202.612 13.073 203.405 13.073H208.245C208.642 13.073 208.88 12.9567 208.88 12.7241C208.88 12.6465 208.84 12.5302 208.801 12.4527L208.721 12.2976ZM226.535 17.4148C226.535 19.4306 226.773 20.5548 227.288 20.7874C227.804 20.9813 228.36 21.02 228.875 20.9813C232.605 20.9813 235.223 19.8958 236.77 17.7637C237.246 17.1047 237.564 16.7945 237.683 16.7945C237.881 16.7945 238 17.0271 238 17.4536C238 18.8104 237.524 20.0897 236.651 21.0976C235.858 22.028 234.628 22.5707 233.358 22.5319C233.081 22.5319 232.565 22.4932 231.771 22.4544L229.788 22.3381L228.003 22.2606C227.407 22.2218 226.693 22.2218 225.939 22.2218C224.551 22.2218 223.202 22.2993 221.813 22.4544C221.377 22.4932 221.06 22.5319 220.901 22.5319C220.584 22.5319 220.425 22.3769 220.425 22.1055C220.425 21.9117 220.584 21.7566 220.861 21.6791C221.496 21.524 222.012 21.1363 222.329 20.5548C222.647 19.702 222.766 18.7716 222.726 17.8412V4.4281C222.726 2.72239 222.012 1.75323 220.544 1.52063L219.552 1.36557C219.116 1.28804 218.917 1.13297 218.917 0.861609C218.878 0.629011 219.036 0.396414 219.274 0.357648H219.393C219.552 0.357648 219.711 0.396414 219.869 0.396414C220.028 0.396414 220.227 0.43518 220.504 0.473946L221.218 0.512713C221.893 0.590245 222.409 0.629011 222.726 0.629011C223.242 0.629011 224.115 0.551479 225.265 0.43518C226.138 0.357648 227.011 0.318881 227.883 0.318881C228.558 0.318881 228.875 0.473946 228.875 0.784076C228.875 1.05544 228.637 1.2105 228.161 1.2105C227.05 1.28804 226.495 2.0246 226.495 3.45895L226.535 17.4148Z" fill="#111D4A"/>
<path d="M12.8145 4.31244V16.4463C12.6954 17.7643 12.9732 19.1211 13.6079 20.3229C14.3221 21.137 15.3536 21.6409 16.4644 21.6022C16.8611 21.6409 17.0595 21.8348 17.0595 22.1837C17.0595 22.4163 16.9008 22.5713 16.5438 22.5713H16.147L14.9172 22.5326L12.8541 22.4163H12.1797C11.5449 22.4163 10.9498 22.4163 10.4737 22.455L6.8238 22.6489C6.42707 22.6876 6.18903 22.7264 6.03034 22.7264C5.67328 22.7264 5.51459 22.5713 5.51459 22.3C5.51459 22.1449 5.55426 21.9511 5.67328 21.8348C5.87164 21.7572 6.10968 21.6797 6.30805 21.6797C7.06184 21.6797 7.77596 21.3308 8.29171 20.7881C8.80747 20.1291 9.04551 19.3537 9.00583 18.5396V3.38205C9.00583 2.5292 8.52975 2.10277 7.61727 2.10277C6.10968 2.02524 4.56243 2.1803 3.13419 2.56796C2.65811 2.72303 2.26138 2.99439 1.98366 3.38205C1.6266 4.07985 1.38856 4.8164 1.1902 5.59173L1.07118 6.05692C0.952159 6.48335 0.753792 6.71595 0.515753 6.71595C0.158693 6.71595 0 6.56088 0 6.21199C0.0396733 5.78556 0.0793466 5.35913 0.158693 4.97147L0.317386 3.57589L0.515753 2.14154L0.634772 1.17238C0.634772 0.823483 0.912485 0.55212 1.22987 0.55212H1.30922C1.42824 0.55212 1.6266 0.55212 1.86464 0.590886C2.30105 0.629652 2.89615 0.629652 3.68962 0.629652L7.06184 0.668419L11.0688 0.707185C13.6476 0.707185 16.3851 0.629652 19.2812 0.513354C19.8366 0.474588 20.2334 0.474588 20.3921 0.474588C20.9872 0.474588 21.3046 0.707185 21.3442 1.21115L21.4236 2.37413C21.4236 2.56796 21.5029 2.99439 21.5823 3.69218C21.6616 4.15738 21.7013 4.62257 21.7013 5.049C21.7013 5.3979 21.5426 5.59173 21.2649 5.59173C21.0268 5.59173 20.8285 5.3979 20.7491 4.97147C20.5904 4.11861 20.154 3.34329 19.4399 2.80056C18.5671 2.2966 17.5753 2.064 16.5834 2.14154C15.5123 2.064 14.4807 2.1803 13.4492 2.5292C13.0128 2.68426 12.8145 3.30452 12.8145 4.31244ZM29.4772 17.4542L29.5963 19.0824C29.6756 19.8189 30.0327 20.478 30.5484 20.9819C31.1038 21.4471 31.818 21.6797 32.5321 21.6409C33.0875 21.6409 33.3256 21.796 33.3256 22.1449C33.3256 22.455 32.9685 22.6101 32.2544 22.6101C31.937 22.6101 31.5006 22.5713 30.9452 22.5326C29.7946 22.3775 28.6441 22.3 27.4539 22.3C26.5811 22.3 25.7083 22.3387 24.8355 22.455C24.4387 22.5326 24.042 22.5713 23.6453 22.6101C23.4072 22.6101 23.2089 22.4938 23.1692 22.2612L23.1295 22.1449L23.6056 21.7572C24.2404 21.6022 24.7958 21.2533 25.1925 20.7493C25.5099 20.1291 25.6289 19.4313 25.5893 18.7335V4.50627C25.6686 3.76972 25.4702 3.03316 25.0735 2.4129C24.5578 1.90894 23.8833 1.59881 23.1295 1.56004C22.7725 1.52128 22.4154 1.44374 22.0583 1.32744C21.8996 1.24991 21.8203 1.09485 21.8203 0.901016C21.8203 0.590886 21.9393 0.435821 22.217 0.474588C22.5344 0.513354 22.8121 0.55212 23.0898 0.590886C23.7643 0.707185 24.3991 0.745951 25.0735 0.707185C25.6686 0.707185 26.4621 0.668419 27.3746 0.590886L28.5648 0.513354C29.6756 0.435821 30.5484 0.397055 31.1832 0.397055C31.5403 0.397055 31.7386 0.513354 31.7386 0.784717C31.7386 0.939782 31.7386 1.05608 31.6593 1.17238C31.5403 1.24991 31.3816 1.32744 31.2625 1.32744C30.7071 1.36621 30.1517 1.59881 29.755 1.98647C29.4772 2.56796 29.3582 3.18822 29.4376 3.80848L29.4772 17.4542ZM46.0607 0.0481591C48.2824 0.125692 50.4644 0.668418 52.4877 1.59881C52.8845 1.79264 53.2812 1.90894 53.6779 1.98647C53.8366 1.98647 53.9953 1.9477 54.0747 1.83141L54.273 1.67634C54.3921 1.56004 54.5111 1.52128 54.6698 1.52128C54.9872 1.52128 55.1459 1.71511 55.1459 2.10277V3.22699L55.0665 5.43666L55.1062 6.59965C55.1459 6.87101 55.1459 7.18114 55.2252 7.53004V7.8014C55.2252 8.1503 55.0665 8.30536 54.7094 8.30536C54.4714 8.30536 54.3127 8.07277 54.2334 7.64634C53.916 6.21199 53.2019 4.89394 52.1307 3.88601C50.6231 2.21907 48.4014 1.24991 46.14 1.28868C44.0373 1.21115 42.014 2.1803 40.7841 3.88601C39.3559 5.90186 38.6418 8.30536 38.7608 10.7476C38.6814 13.4613 39.3956 16.1749 40.8238 18.5009C42.2124 20.5943 43.9183 21.6409 45.9417 21.6409C46.7351 21.6022 47.4889 21.4859 48.2427 21.2533C48.9965 21.0595 49.7106 20.7881 50.3454 20.4004C50.7818 20.1291 51.0992 19.6639 51.2579 19.1987C51.4562 18.3846 51.5356 17.5317 51.4959 16.7176C51.6149 15.7872 51.3372 14.8181 50.7818 14.0428C50.028 13.4613 49.0758 13.1511 48.1237 13.1899C47.7666 13.1511 47.6079 12.9961 47.6079 12.7247C47.6079 12.4146 47.8063 12.2595 48.203 12.2595C48.3221 12.2595 48.5204 12.2595 48.7981 12.2983C49.8693 12.3758 51.0992 12.4533 52.4481 12.4533C53.4796 12.4533 54.5111 12.4146 55.5426 12.3371C55.9393 12.2595 56.3757 12.2595 56.7725 12.2208C57.1692 12.2208 57.3676 12.3758 57.3676 12.6472C57.3676 12.9185 57.1692 13.0736 56.7725 13.1511C56.1774 13.2287 55.7013 13.6163 55.4632 14.1591C55.1855 15.0507 55.0665 15.9423 55.1062 16.8727C55.1062 17.2216 55.1062 17.5705 55.1459 17.9194C55.1855 18.4621 55.2252 18.811 55.2252 19.0436C55.2649 19.315 55.1855 19.5476 55.0268 19.7802C54.7888 20.0128 54.5111 20.1678 54.1937 20.2454C53.9557 20.3229 53.0828 20.7106 51.5753 21.3308C49.4329 22.3387 47.0922 22.8815 44.7118 22.9978C41.9743 23.0753 39.3162 22.0286 37.4516 20.0515C35.5076 17.9582 34.5158 15.2445 34.6348 12.4533C34.5554 9.23575 35.706 6.09569 37.888 3.69218C39.9907 1.28868 42.9662 -0.0293734 46.0607 0.0481591ZM66.1354 4.15738V7.64634C66.0957 8.30536 66.175 8.92562 66.3734 9.54588C66.5321 9.81725 66.8891 9.93355 67.4446 9.93355H70.063C71.1739 9.89478 72.2054 9.19699 72.6021 8.18907L72.9988 7.41374C73.0782 7.21991 73.2765 7.10361 73.4749 7.10361C73.713 7.10361 73.832 7.25868 73.832 7.53004C73.832 7.60757 73.832 7.84017 73.7923 8.22783C73.7526 8.4992 73.7526 8.73179 73.7526 8.92562C73.7526 9.27452 73.7923 10.0886 73.9113 11.3291C73.9907 12.1432 73.9907 12.8798 73.9907 13.5L74.0303 14.3141C74.0303 14.4304 74.0303 14.508 73.9907 14.6243C73.9113 14.7018 73.832 14.7406 73.713 14.7406C73.4352 14.7793 73.2765 14.5467 73.1972 14.1203C73.1179 13.345 72.7608 12.6084 72.2054 12.0269C71.9277 11.7556 71.5309 11.6005 71.1739 11.523C70.4201 11.4454 69.6266 11.4067 68.8728 11.4067H67.762C67.4049 11.3679 67.0082 11.4454 66.6908 11.6393C66.4527 11.9106 66.3337 12.2208 66.2941 12.5696C66.2147 13.4225 66.175 14.2754 66.175 15.1282V16.5626C66.1354 17.648 66.2544 18.7722 66.5321 19.8189C66.6908 20.633 67.5239 21.1757 68.3571 21.0595C72.8005 21.0595 75.7363 19.7414 77.0852 17.0665C77.1645 16.9502 77.2439 16.8727 77.2835 16.8727C77.4026 16.8339 77.5216 16.9115 77.6009 16.989C77.6803 17.0665 77.7596 17.2216 77.7596 17.3379C77.7596 18.4233 77.4422 19.47 76.8868 20.4004C76.4901 21.1757 75.8553 21.796 75.0618 22.1837C74.1494 22.5713 73.1575 22.7652 72.1657 22.7264C71.3722 22.7264 70.6184 22.6876 69.825 22.6101L67.9206 22.455C67.2065 22.3775 66.2544 22.3387 65.0642 22.3387C64.2707 22.3387 63.0408 22.3775 61.4142 22.4938C60.9778 22.5326 60.6604 22.5326 60.4621 22.5326C60.2637 22.5713 60.0653 22.4163 60.0257 22.2224V22.1837C60.0257 21.9898 60.1447 21.8348 60.3827 21.7185C60.8588 21.5634 61.2952 21.3308 61.6523 20.9819C61.93 20.5555 62.1284 20.0903 62.168 19.5863C62.3267 18.811 62.3664 18.0357 62.3664 17.2604V4.54504C62.4457 3.69218 62.2474 2.83933 61.7713 2.10277C61.0572 1.56004 60.1844 1.24991 59.2719 1.21115C59.0338 1.21115 58.8355 1.01731 58.8355 0.745951C58.8355 0.513354 59.0338 0.358289 59.3909 0.358289C59.4702 0.358289 59.6289 0.358289 59.9067 0.397055H60.7001L62.3664 0.474588L68.5951 0.55212C72.2054 0.55212 74.3874 0.513354 75.2205 0.397055H75.4586C75.776 0.397055 75.9347 0.590886 75.9347 0.939782C75.9347 1.17238 75.9743 1.63757 76.0537 2.25783C76.133 3.18822 76.1727 3.88601 76.1727 4.27368C76.1727 5.08777 75.9743 5.5142 75.5379 5.5142C75.3396 5.5142 75.2205 5.2816 75.2205 4.8164C75.2999 3.88601 74.8238 2.99439 74.0303 2.49043C72.8401 1.9477 71.4912 1.67634 70.182 1.79264H68.1587L67.0478 1.90894C66.4924 2.064 66.2147 2.60673 66.2147 3.53712L66.1354 4.15738ZM86.0117 16.1749C85.8926 17.5705 86.091 19.0048 86.6068 20.3229C87.0828 21.0982 87.9557 21.5634 88.8681 21.5634C89.3442 21.6022 89.5426 21.796 89.5426 22.1061C89.5426 22.4163 89.3442 22.5713 88.9872 22.5713C88.8681 22.5713 88.6301 22.5713 88.3127 22.5326C87.3606 22.455 86.4481 22.4163 85.5753 22.4163C84.8611 22.4163 84.1867 22.455 83.6313 22.4938L82.2427 22.6101L81.1319 22.6876C80.8145 22.7264 80.6161 22.7264 80.4971 22.7264C80.1003 22.7264 79.902 22.5713 79.902 22.3C79.8623 22.1061 80.021 21.9123 80.2194 21.8348C80.8145 21.7185 81.3699 21.3696 81.7666 20.9432C82.084 20.4392 82.2427 19.8189 82.203 19.1987V17.6868L82.2427 17.0665V5.43666C82.3221 4.54504 82.1634 3.65342 81.727 2.83933C81.0922 2.064 80.1003 1.59881 79.1085 1.56004C78.6721 1.48251 78.4341 1.28868 78.4341 1.01731C78.3944 0.784717 78.5531 0.590886 78.7911 0.55212H78.9101C79.1085 0.55212 79.3069 0.55212 79.5052 0.590886C80.4177 0.668419 81.3699 0.745951 82.2824 0.707185C83.3932 0.707185 84.7421 0.629652 86.3291 0.513354C88.1937 0.358289 89.4632 0.319523 90.1774 0.319523C92.042 0.24199 93.9066 0.86225 95.3746 1.98647C96.6838 2.99439 97.4772 4.54504 97.4376 6.17322C97.4376 7.21991 97.1202 8.22783 96.5251 9.08069C95.8903 9.97231 95.0175 10.6701 94.0257 11.0578C93.8273 11.1353 93.7083 11.2516 93.7083 11.3679C93.748 11.523 93.7876 11.6393 93.867 11.7556C93.9463 11.9106 94.105 12.1432 94.3034 12.4921L95.7713 15.0507L97.4772 17.9969C97.874 18.7722 98.3897 19.47 99.0245 20.0515C99.4609 20.4392 100.056 20.633 100.651 20.633C100.889 20.633 101.127 20.633 101.365 20.5555C101.484 20.5167 101.603 20.5167 101.722 20.5167C101.921 20.5167 102.04 20.633 102.04 20.9044C102.04 21.2145 101.603 21.5634 100.691 21.9511C99.937 22.3 99.1435 22.5326 98.3104 22.5326C97.0805 22.4938 95.93 21.8735 95.1762 20.9044C93.7083 19.0048 92.4784 16.9502 91.4469 14.7406C91.0898 13.9265 90.6138 13.1511 89.979 12.4921C89.4236 12.1432 88.7491 11.9494 88.1143 12.0269H87.0828L86.3291 12.1432C86.1704 12.2208 86.091 12.4921 86.091 12.9185L86.0117 16.1749ZM86.0117 3.61465V9.19699C85.972 9.66218 86.0513 10.0886 86.2894 10.515C86.6861 10.7476 87.1225 10.8639 87.5986 10.7864C88.8285 10.8252 90.0187 10.7864 91.2485 10.6701C91.7246 10.5926 92.2007 10.36 92.5578 10.0111C93.3909 9.27452 93.8273 8.18906 93.748 7.06485C93.8273 4.07985 91.4469 1.56004 88.3524 1.48251H87.9557C87.4002 1.40498 86.8448 1.59881 86.4084 1.9477C86.091 2.4129 85.9323 3.03316 86.0117 3.61465Z" fill="#111D4A"/>
</g>
</svg>
