<svg width="191" height="24" viewBox="0 0 191 24" fill="none" xmlns="http://www.w3.org/2000/svg">
<g clip-path="url(#clip0_10_49)">
<path d="M175.239 0.453125H169.773L177.718 12.1515L170.025 23.5263H175.492L183.052 12.1537L175.239 0.453125ZM185.567 0.453125L182.338 5.2269L185.027 9.18318L191.001 0.453125H185.567ZM185.029 14.7985L182.334 18.7657L185.569 23.5285H191.003L185.029 14.8007V14.7985Z" fill="#FAFDFF"/>
<path d="M0 0.445312V4.62018H16.1655C16.8476 4.62018 17.3502 4.26608 17.6691 3.56007L18.8221 0.447498H0V0.445312ZM0 10.0191V23.6366H4.64164V14.8912C4.64164 14.6486 4.72189 14.4519 4.88238 14.2967C5.04076 14.1415 5.22871 14.0628 5.442 14.0628H11.9399C12.622 14.0628 13.1246 13.689 13.4434 12.9371L14.436 10.0191H0Z" fill="#FAFDFF"/>
<path d="M35.4668 2.10214C34.9558 0.998318 34.166 0.445312 33.0995 0.445312H29.4504L20.2305 23.6366H25.0643L32.0415 5.14914L38.8921 23.6366H43.918L35.4668 2.10214Z" fill="#FAFDFF"/>
<path d="M57.8427 19.3961V2.10214C57.8427 1.63657 57.6885 1.2475 57.3802 0.924001C57.0719 0.604875 56.6917 0.445312 56.2441 0.445312H53.2031V23.6366H67.4153C68.0551 23.6366 68.5472 23.2847 68.8893 22.5786L70.1035 19.3961H57.8427Z" fill="#FAFDFF"/>
<path d="M94.2675 17.6066C93.9486 17.6066 93.6276 17.7181 93.3087 17.9389C91.9213 19.0208 90.3628 19.5607 88.6333 19.5607C86.5427 19.5607 84.8026 18.8372 83.4152 17.3902C82.0277 15.9433 81.3351 14.1728 81.3351 12.0722C81.3351 9.97167 82.0235 8.10719 83.3983 6.67112C84.773 5.23506 86.4772 4.51593 88.5024 4.51593C90.2763 4.51593 91.8749 5.0908 93.3045 6.23834C93.6234 6.4591 93.9444 6.56839 94.2633 6.56839C94.5821 6.56839 94.8947 6.47003 95.1924 6.27112L97.7857 4.41539C96.7636 3.13451 95.4289 2.09626 93.786 1.30063C92.1409 0.507189 90.3818 0.109375 88.5024 0.109375C86.3061 0.109375 84.3 0.633965 82.4839 1.68096C80.672 2.73014 79.2297 4.15528 78.1632 5.95637C77.0968 7.75746 76.5625 9.79243 76.5625 12.0678C76.5625 14.2099 77.0693 16.1881 78.0809 18.0001C79.0945 19.8099 80.4967 21.2613 82.2896 22.3564C84.0825 23.4493 86.152 23.9957 88.4981 23.9957C90.272 23.9957 91.972 23.6088 93.6044 22.8351C95.2368 22.0613 96.5967 21.0252 97.6864 19.7203L95.1882 17.8995C94.8904 17.7006 94.5821 17.6001 94.259 17.6001" fill="#FAFDFF"/>
<path d="M159.632 0.445312H155.28V17.1076C153.037 13.7437 147.969 6.06936 145.57 2.43438C144.753 1.19723 143.399 0.454056 141.951 0.449684L139.723 0.445312V23.6366H144.109V8.13275L152.689 21.5929C153.502 22.8694 154.881 23.6366 156.359 23.6366H159.634V0.445312H159.632Z" fill="#FAFDFF"/>
<path d="M127.368 5.62186C126.281 3.83388 124.834 2.42623 123.033 1.39891C121.795 0.695082 120.48 0.231694 119.088 0.010929V4.51148C120.3 4.83279 121.347 5.47322 122.232 6.43279C123.565 7.87978 124.232 9.6765 124.232 11.8164C124.232 13.9563 123.565 15.7574 122.232 17.2022C121.347 18.1617 120.3 18.8044 119.088 19.1257V23.635C120.577 23.4076 121.951 22.9158 123.208 22.1574C124.999 21.0754 126.414 19.6284 127.448 17.8164C128.483 16.0066 129.001 14.0066 129.001 11.8164C129.001 9.4776 128.456 7.41202 127.368 5.62186ZM106.833 5.82076C105.799 7.63279 105.281 9.6306 105.281 11.8164C105.281 14.1596 105.83 16.2317 106.931 18.0306C108.029 19.8317 109.479 21.2393 111.283 22.2535C112.52 22.9508 113.823 23.4098 115.196 23.6284V19.1191C114.015 18.7978 112.976 18.1574 112.083 17.2022C110.727 15.7574 110.05 13.9607 110.05 11.8164C110.05 9.67213 110.727 7.85355 112.083 6.41749C112.976 5.46885 114.015 4.83497 115.196 4.51366V0C113.711 0.225137 112.339 0.71694 111.076 1.47978C109.283 2.56393 107.87 4.01093 106.833 5.82076Z" fill="#FAFDFF"/>
</g>
<defs>
<clipPath id="clip0_10_49">
<rect width="191" height="24" fill="white"/>
</clipPath>
</defs>
</svg>
