<svg width="328" height="30" viewBox="0 0 328 30" fill="none" xmlns="http://www.w3.org/2000/svg">
<path d="M262.492 29.3658C260.667 29.3658 259.041 29.0524 257.613 28.4258C256.193 27.7991 255.064 26.9282 254.226 25.8131C253.396 24.6888 252.945 23.3848 252.871 21.9011H256.355C256.428 22.8135 256.742 23.6014 257.295 24.2649C257.848 24.9192 258.571 25.4261 259.465 25.7855C260.359 26.1449 261.349 26.3246 262.437 26.3246C263.653 26.3246 264.732 26.1126 265.672 25.6887C266.612 25.2648 267.349 24.675 267.883 23.9193C268.418 23.1637 268.685 22.2882 268.685 21.2929C268.685 20.2515 268.427 19.3346 267.911 18.542C267.395 17.7403 266.639 17.1136 265.644 16.662C264.649 16.2105 263.432 15.9847 261.995 15.9847H259.728V12.9435H261.995C263.119 12.9435 264.105 12.7408 264.953 12.3353C265.81 11.9298 266.478 11.3585 266.957 10.6212C267.446 9.88397 267.69 9.0177 267.69 8.02242C267.69 7.06399 267.478 6.22998 267.054 5.52038C266.63 4.81078 266.031 4.25784 265.257 3.86157C264.492 3.4653 263.589 3.26717 262.547 3.26717C261.571 3.26717 260.649 3.44687 259.783 3.80628C258.926 4.15647 258.225 4.66794 257.682 5.34068C257.138 6.0042 256.843 6.80596 256.797 7.74595H253.479C253.535 6.26224 253.982 4.96284 254.82 3.84775C255.659 2.72344 256.755 1.84796 258.11 1.2213C259.474 0.594642 260.972 0.281311 262.603 0.281311C264.354 0.281311 265.856 0.636112 267.109 1.34571C268.363 2.0461 269.326 2.97227 269.998 4.12422C270.671 5.27617 271.007 6.52027 271.007 7.85654C271.007 9.45083 270.588 10.8101 269.749 11.9344C268.92 13.0587 267.791 13.8375 266.363 14.2706V14.4918C268.151 14.7867 269.547 15.547 270.551 16.7726C271.556 17.9891 272.058 19.4958 272.058 21.2929C272.058 22.8319 271.639 24.2142 270.8 25.4399C269.971 26.6564 268.837 27.6148 267.399 28.3152C265.962 29.0156 264.326 29.3658 262.492 29.3658Z" fill="#F5F2EF"/>
<path d="M290.572 29.3658C289.411 29.3473 288.249 29.1261 287.088 28.7022C285.927 28.2783 284.867 27.5641 283.909 26.5596C282.951 25.5459 282.181 24.1774 281.6 22.4541C281.02 20.7215 280.73 18.5466 280.73 15.9294C280.73 13.4228 280.965 11.2018 281.435 9.26652C281.905 7.32203 282.587 5.68626 283.48 4.35922C284.374 3.02295 285.453 2.00924 286.715 1.31807C287.987 0.626896 289.42 0.281311 291.014 0.281311C292.599 0.281311 294.009 0.599249 295.244 1.23513C296.488 1.86179 297.502 2.73727 298.285 3.86157C299.069 4.98588 299.575 6.28067 299.806 7.74595H296.433C296.12 6.4742 295.511 5.41901 294.608 4.58039C293.705 3.74177 292.507 3.32246 291.014 3.32246C288.821 3.32246 287.093 4.27627 285.83 6.1839C284.577 8.09153 283.946 10.7687 283.937 14.2153H284.158C284.674 13.432 285.287 12.7638 285.996 12.2109C286.715 11.6488 287.508 11.2156 288.374 10.9115C289.24 10.6074 290.157 10.4553 291.125 10.4553C292.747 10.4553 294.23 10.8608 295.576 11.6718C296.921 12.4736 298 13.584 298.811 15.0032C299.622 16.4132 300.027 18.0306 300.027 19.8553C300.027 21.6062 299.635 23.2097 298.852 24.6658C298.069 26.1126 296.967 27.2646 295.548 28.1216C294.138 28.9695 292.479 29.3842 290.572 29.3658ZM290.572 26.3246C291.733 26.3246 292.774 26.0343 293.696 25.4537C294.627 24.8731 295.359 24.0944 295.894 23.1176C296.438 22.1407 296.709 21.0533 296.709 19.8553C296.709 18.6849 296.447 17.6205 295.921 16.662C295.405 15.6944 294.691 14.9249 293.779 14.3535C292.876 13.7822 291.844 13.4965 290.682 13.4965C289.807 13.4965 288.991 13.6716 288.236 14.0218C287.48 14.3628 286.816 14.8327 286.245 15.4318C285.683 16.0308 285.241 16.7173 284.918 17.4914C284.596 18.2563 284.434 19.0627 284.434 19.9105C284.434 21.0348 284.697 22.0854 285.222 23.0623C285.757 24.0391 286.485 24.8271 287.406 25.4261C288.337 26.0251 289.392 26.3246 290.572 26.3246Z" fill="#F5F2EF"/>
<path d="M318.157 29.3658C316.075 29.3658 314.301 28.799 312.835 27.6655C311.37 26.5227 310.25 24.8685 309.476 22.7029C308.702 20.528 308.315 17.9015 308.315 14.8235C308.315 11.764 308.702 9.15133 309.476 6.98566C310.26 4.81078 311.384 3.15197 312.849 2.00924C314.324 0.857285 316.093 0.281311 318.157 0.281311C320.222 0.281311 321.986 0.857285 323.452 2.00924C324.926 3.15197 326.05 4.81078 326.825 6.98566C327.608 9.15133 328 11.764 328 14.8235C328 17.9015 327.613 20.528 326.838 22.7029C326.064 24.8685 324.945 26.5227 323.479 27.6655C322.014 28.799 320.24 29.3658 318.157 29.3658ZM318.157 26.3246C320.222 26.3246 321.825 25.3293 322.968 23.3387C324.111 21.3482 324.682 18.5098 324.682 14.8235C324.682 12.3722 324.419 10.2848 323.894 8.56153C323.378 6.83821 322.631 5.52499 321.655 4.62186C320.687 3.71873 319.521 3.26717 318.157 3.26717C316.111 3.26717 314.513 4.27627 313.361 6.29449C312.209 8.30349 311.633 11.1465 311.633 14.8235C311.633 17.2749 311.891 19.3576 312.407 21.0717C312.923 22.7858 313.665 24.0898 314.632 24.9837C315.609 25.8776 316.784 26.3246 318.157 26.3246Z" fill="#F5F2EF"/>
<path d="M222.207 0.63739H215.275L225.354 14.9735L215.592 28.912H222.532L232.123 14.9777L222.207 0.63739Z" fill="#007EE5"/>
<path d="M242.211 0.63739H235.313L231.217 6.48893L234.629 11.336L242.211 0.63739Z" fill="white"/>
<path d="M231.212 23.077L235.313 28.9114H242.21L234.629 18.2171L231.212 23.077Z" fill="white"/>
<path d="M0 0.54657V5.67575H20.5256C20.9369 5.68442 21.3408 5.56589 21.6822 5.33637C22.0236 5.10684 22.2857 4.77753 22.4327 4.39346L23.8995 0.580764L0 0.54657ZM0 12.2753V28.9451H5.89255V18.2465C5.88726 18.11 5.91167 17.9739 5.96409 17.8478C6.0165 17.7216 6.09568 17.6083 6.19616 17.5156C6.38622 17.3311 6.64103 17.2283 6.90599 17.2292H15.1547C16.0099 17.2292 16.6457 16.7705 17.0619 15.8529L18.3191 12.2924L0 12.2753Z" fill="white"/>
<path d="M45.0024 2.57687C44.3567 1.22191 43.3518 0.54657 42.0091 0.54657H37.3567L25.6699 28.9622H31.7977L40.6536 6.30835L49.347 28.9622H55.7442L45.0024 2.57687Z" fill="white"/>
<path d="M73.3963 23.7648V2.57699C73.3992 2.30957 73.3486 2.04427 73.2475 1.79665C73.1465 1.54903 72.997 1.32407 72.8078 1.13497C72.6186 0.945867 72.3935 0.796424 72.1458 0.695405C71.8981 0.594385 71.6327 0.543824 71.3651 0.546685H67.5166V28.9624H85.5492C86.3616 28.9624 86.9845 28.5349 87.4179 27.6801L88.9615 23.7776L73.3963 23.7648Z" fill="white"/>
<path d="M119.617 21.5734C119.177 21.5888 118.752 21.7379 118.399 22.0008C116.699 23.3061 114.611 24.0057 112.468 23.9884C111.249 24.0168 110.037 23.7988 108.905 23.3476C107.773 22.8963 106.744 22.2211 105.879 21.3625C105.015 20.5038 104.333 19.4794 103.874 18.3508C103.415 17.2221 103.189 16.0124 103.21 14.7943C103.174 13.5713 103.388 12.3539 103.839 11.2163C104.29 10.0788 104.968 9.04487 105.831 8.17766C106.671 7.31765 107.68 6.6397 108.794 6.186C109.907 5.7323 111.103 5.51254 112.305 5.5404C114.518 5.52638 116.669 6.27171 118.399 7.65192C118.756 7.90451 119.18 8.04446 119.617 8.0537C120.036 8.05043 120.445 7.92409 120.793 7.69039L124.086 5.41645C122.704 3.78897 120.977 2.48825 119.032 1.60803C116.931 0.633747 114.642 0.136003 112.326 0.150484C109.658 0.120881 107.028 0.785177 104.694 2.0782C102.434 3.31129 100.537 5.11339 99.1901 7.3057C97.8215 9.5611 97.1175 12.1568 97.159 14.7943C97.1393 17.3453 97.8054 19.8548 99.0875 22.0606C100.371 24.2756 102.213 26.1162 104.428 27.3993C106.824 28.7692 109.546 29.4635 112.305 29.4082C114.544 29.4106 116.756 28.9248 118.788 27.9849C120.772 27.1055 122.539 25.8027 123.966 24.1679L120.793 21.9367C120.445 21.703 120.036 21.5766 119.617 21.5734Z" fill="white"/>
<path d="M202.558 0.542969H197.033V20.9614C194.189 16.841 187.758 7.43317 184.713 2.97933C184.203 2.2314 183.518 1.61927 182.718 1.19615C181.918 0.773036 181.026 0.551744 180.12 0.551518H177.294V28.9629H182.853V9.96357L193.74 26.4582C194.249 27.2283 194.942 27.8603 195.755 28.2974C196.568 28.7345 197.478 28.9632 198.401 28.9629H202.558V0.542969Z" fill="white"/>
<path d="M161.614 6.8902C160.255 4.72247 158.361 2.94011 156.115 1.714C154.559 0.854485 152.864 0.275725 151.108 0.0042736V5.51815C152.636 5.90471 154.021 6.72222 155.097 7.8733C155.934 8.75102 156.589 9.78566 157.025 10.9176C157.46 12.0495 157.667 13.2564 157.633 14.4686C157.667 15.6815 157.461 16.8891 157.025 18.0218C156.59 19.1545 155.935 20.1899 155.097 21.0681C154.02 22.2179 152.635 23.0351 151.108 23.4233V28.9628C152.951 28.7014 154.726 28.0875 156.337 27.1547C158.561 25.8758 160.414 24.0423 161.717 21.8332C163.031 19.6078 163.711 17.0655 163.684 14.4814C163.737 11.8049 163.019 9.16952 161.614 6.8902V6.8902ZM135.559 7.13384C134.239 9.35607 133.551 11.8968 133.571 14.4814C133.518 17.168 134.246 19.8123 135.666 22.094C137.031 24.2667 138.94 26.0452 141.204 27.2531C142.746 28.1095 144.426 28.6882 146.169 28.9628V23.4275C144.659 23.0269 143.291 22.2144 142.217 21.0809C141.37 20.2079 140.707 19.1742 140.266 18.0407C139.826 16.9072 139.617 15.697 139.652 14.4814C139.614 13.2629 139.822 12.0493 140.262 10.9127C140.703 9.776 141.368 8.7395 142.217 7.86475C143.295 6.73927 144.662 5.93189 146.169 5.53097V0C144.326 0.262496 142.551 0.879391 140.943 1.81659C138.718 3.09263 136.863 4.92496 135.559 7.13384V7.13384Z" fill="white"/>
</svg>
